<?xml version="1.0" standalone="no"?>
<!DOCTYPE svg PUBLIC "-//W3C//DTD SVG 20010904//EN"
 "http://www.w3.org/TR/2001/REC-SVG-20010904/DTD/svg10.dtd">
<svg version="1.0" xmlns="http://www.w3.org/2000/svg"
 width="3300.000000pt" height="837.000000pt" viewBox="0 0 3300.000000 837.000000"
 preserveAspectRatio="xMidYMid meet">
<metadata>
Created by potrace 1.10, written by Peter Selinger 2001-2011
</metadata>
<g transform="translate(0.000000,837.000000) scale(0.100000,-0.100000)"
fill="#000000" stroke="none">
<path d="M31300 8346 c-83 -18 -172 -51 -287 -110 -119 -59 -142 -60 -170 -3
-11 23 -32 49 -47 56 -24 13 -33 13 -79 -3 -29 -10 -80 -32 -115 -48 -56 -26
-65 -35 -92 -88 -41 -81 -53 -86 -114 -44 -28 19 -58 34 -67 34 -8 0 -50 -33
-92 -72 -55 -53 -84 -90 -104 -133 -27 -57 -28 -68 -28 -200 1 -131 3 -151 44
-313 38 -154 46 -174 71 -192 85 -61 130 -28 194 140 86 230 164 348 332 510
144 139 274 219 429 266 83 25 270 26 341 1 72 -25 115 -64 117 -105 2 -32 -2
-36 -79 -83 -101 -61 -115 -86 -89 -155 20 -53 66 -109 106 -130 41 -21 125
-18 175 7 96 46 155 145 155 261 1 185 -120 332 -320 394 -69 21 -205 26 -281
10z"/>
<path d="M1421 8295 c-232 -65 -375 -280 -317 -477 21 -73 87 -147 158 -178
106 -45 196 -9 252 103 24 48 27 63 20 90 -9 31 -22 41 -139 114 -67 41 -32
113 74 154 80 31 236 31 345 1 154 -44 301 -138 447 -285 147 -148 229 -278
304 -485 45 -123 73 -162 118 -162 49 0 94 33 106 77 100 371 111 515 51 651
-21 47 -121 157 -168 184 -28 17 -30 17 -86 -18 -56 -36 -57 -36 -78 -18 -11
11 -27 36 -35 57 -19 46 -58 80 -120 103 -26 9 -68 25 -91 35 -39 17 -47 17
-72 4 -16 -8 -36 -32 -46 -55 -10 -22 -26 -42 -36 -46 -12 -3 -68 17 -146 54
-190 90 -237 104 -372 108 -82 3 -131 0 -169 -11z"/>
<path d="M29125 7920 c-284 -51 -493 -289 -446 -509 35 -165 153 -275 319
-297 93 -12 183 30 221 103 17 34 13 110 -9 152 -30 60 -73 91 -127 91 -41 0
-50 -5 -96 -50 -63 -62 -83 -62 -114 0 -43 83 -22 177 58 265 63 68 117 95
192 95 33 0 57 -4 57 -10 0 -11 -31 -71 -53 -103 -10 -16 -8 -22 18 -43 17
-13 57 -38 89 -54 57 -29 64 -30 192 -29 124 0 138 -2 194 -27 33 -15 113 -67
178 -116 117 -88 195 -128 254 -128 l31 0 -6 53 c-25 244 -297 478 -676 583
-98 27 -205 37 -276 24z"/>
<path d="M3615 7865 c-328 -73 -627 -287 -700 -500 -9 -28 -19 -72 -22 -99
l-6 -48 44 7 c71 11 136 46 259 139 152 114 185 126 350 126 141 0 158 4 242
58 55 35 72 62 47 78 -6 3 -19 25 -29 48 -22 48 -16 56 46 56 53 0 133 -41
178 -90 80 -89 105 -191 64 -270 -30 -59 -56 -63 -100 -15 -46 51 -83 68 -131
62 -104 -14 -164 -174 -98 -265 58 -81 207 -96 333 -34 73 36 115 78 154 158
95 193 -5 424 -231 535 -140 68 -262 85 -400 54z"/>
<path d="M32015 7831 c-49 -21 -72 -74 -55 -127 16 -46 61 -68 112 -54 65 18
94 73 74 138 -13 40 -82 63 -131 43z"/>
<path d="M873 7778 c-30 -33 -36 -62 -19 -102 15 -36 59 -66 96 -66 29 0 76
26 84 45 28 73 -21 145 -96 145 -33 0 -50 -6 -65 -22z"/>
<path d="M32293 7679 c-160 -50 -261 -257 -190 -389 43 -81 177 -128 243 -85
33 21 52 52 83 136 34 94 48 102 103 63 137 -96 196 -395 127 -646 -64 -231
-238 -449 -542 -679 -67 -51 -126 -96 -131 -100 -14 -12 30 -74 74 -103 22
-15 68 -34 103 -43 171 -44 532 33 612 130 46 55 135 199 135 219 0 16 -39 50
-95 83 -15 9 -13 14 19 49 70 74 112 192 104 292 -3 30 -8 57 -11 61 -10 9
-61 8 -124 -1 l-53 -9 0 29 c0 16 14 74 30 129 36 118 60 247 60 319 -1 229
-171 488 -359 546 -78 25 -109 24 -188 -1z"/>
<path d="M491 7638 c-40 -15 -74 -40 -130 -97 -128 -128 -181 -242 -189 -403
-5 -115 6 -190 54 -357 26 -88 33 -126 25 -134 -8 -8 -29 -7 -75 2 -82 16
-101 7 -110 -51 -13 -89 31 -221 99 -297 21 -23 36 -43 34 -44 -2 -2 -23 -15
-46 -30 -60 -38 -67 -56 -40 -104 115 -203 146 -227 357 -286 59 -16 106 -20
220 -21 133 -1 150 1 198 23 46 21 122 90 122 112 0 4 -56 51 -125 104 -246
191 -400 360 -485 530 -58 118 -80 215 -81 361 -1 220 54 370 158 431 54 31
64 25 93 -62 38 -113 78 -155 151 -155 78 0 157 54 185 125 46 122 -47 304
-182 355 -71 26 -162 26 -233 -2z"/>
<path d="M26640 7639 c-400 -25 -867 -128 -1278 -280 -360 -134 -477 -165
-659 -176 -176 -10 -283 19 -340 93 -56 73 -85 104 -99 104 -17 0 -40 -43 -49
-91 -40 -213 379 -411 730 -344 112 21 293 81 428 141 208 94 241 106 296 111
31 2 62 0 70 -5 22 -16 -20 -73 -102 -141 -99 -81 -120 -105 -161 -187 -67
-134 -82 -215 -53 -287 23 -55 37 -59 91 -32 26 13 73 29 104 35 152 30 187
56 263 199 24 46 59 100 76 120 l33 36 30 -33 c16 -18 30 -41 30 -51 0 -10 7
-24 15 -31 28 -23 118 33 240 150 197 189 277 238 460 286 89 24 120 27 275
27 189 1 289 -10 554 -64 287 -58 480 -131 544 -204 39 -44 40 -67 5 -91 -44
-28 -119 -23 -184 13 -110 61 -136 72 -239 97 -58 14 -190 53 -293 86 -227 72
-321 91 -450 91 -109 0 -177 -15 -271 -63 -161 -81 -268 -183 -251 -239 3 -10
29 -34 56 -54 28 -20 49 -41 47 -47 -3 -7 -48 -38 -101 -69 -127 -76 -196
-130 -282 -220 -131 -139 -161 -247 -110 -401 69 -210 100 -233 183 -137 24
27 50 49 57 49 22 0 65 -59 106 -146 62 -130 173 -214 325 -245 52 -11 70 -10
128 5 90 22 156 56 194 101 40 45 41 82 6 125 -26 30 -28 31 -44 13 -9 -10
-25 -39 -34 -66 -23 -61 -42 -71 -130 -64 -214 18 -362 211 -342 445 29 319
257 503 687 553 126 14 368 7 489 -15 126 -23 260 -63 392 -116 145 -59 192
-86 282 -164 124 -107 160 -134 216 -160 50 -23 67 -26 185 -26 72 0 175 -7
230 -15 103 -15 205 -19 205 -9 0 3 -23 52 -51 108 -367 729 -1185 1222 -2134
1286 -165 11 -193 11 -375 -1z"/>
<path d="M5894 7590 c-467 -34 -943 -189 -1313 -427 -336 -217 -616 -524 -783
-858 -43 -86 -44 -95 -9 -95 16 0 83 7 148 16 65 9 181 17 258 18 130 2 144 4
190 28 28 14 104 71 170 127 72 60 148 114 190 135 171 83 406 154 588 176
155 20 425 8 562 -24 260 -61 433 -197 494 -387 20 -61 29 -182 19 -245 -10
-66 -44 -147 -83 -198 -58 -76 -186 -136 -291 -136 -47 0 -64 14 -92 80 -30
69 -44 77 -76 40 -14 -18 -26 -41 -26 -53 0 -82 165 -180 302 -179 108 1 270
83 327 165 15 23 42 72 59 108 31 64 72 119 90 119 12 0 72 -60 72 -72 0 -16
49 -40 70 -33 25 8 58 71 95 185 39 118 37 171 -11 269 -62 126 -198 247 -429
384 -26 15 -45 33 -43 40 3 6 23 25 46 40 55 37 67 60 51 98 -25 62 -205 189
-328 231 -55 19 -86 23 -191 23 -143 -1 -226 -18 -495 -105 -88 -29 -206 -62
-262 -75 -57 -13 -115 -32 -130 -43 -105 -74 -207 -93 -259 -48 -26 22 -27 25
-14 56 33 81 237 162 575 229 409 82 693 82 905 0 113 -43 181 -91 328 -231
129 -124 222 -188 254 -175 9 3 19 19 23 35 3 16 19 41 34 56 l28 27 30 -35
c16 -20 49 -73 73 -118 49 -92 97 -150 138 -167 15 -6 67 -20 116 -31 50 -11
105 -30 123 -41 41 -25 54 -17 79 47 24 63 14 127 -40 240 -55 116 -68 133
-164 211 -72 59 -127 127 -116 145 9 15 100 8 155 -11 30 -10 101 -41 159 -69
427 -201 710 -228 995 -93 167 80 233 183 194 302 -7 19 -17 40 -23 46 -16 18
-46 -5 -97 -74 -31 -41 -55 -62 -98 -82 -53 -25 -63 -26 -211 -25 -212 1 -274
16 -690 169 -585 215 -1195 320 -1666 285z"/>
<path d="M31801 7560 c-59 -21 -98 -45 -202 -121 -37 -27 -73 -49 -82 -49 -8
0 -25 16 -37 35 -12 19 -27 35 -33 35 -6 0 -42 -11 -78 -25 -87 -34 -135 -76
-162 -145 -24 -60 -24 -60 -112 -45 -35 6 -45 3 -71 -19 -61 -50 -118 -226
-154 -471 -41 -271 -81 -391 -254 -760 -103 -218 -113 -234 -237 -369 -4 -5
10 27 32 72 105 214 219 701 219 933 0 153 -42 287 -115 368 -51 56 -163 124
-260 157 -104 35 -260 44 -353 20 -235 -60 -378 -238 -375 -468 3 -184 96
-303 248 -315 109 -9 189 45 220 149 18 61 7 117 -30 154 -22 22 -33 24 -108
24 -147 0 -165 47 -59 150 107 104 221 146 350 130 128 -16 204 -47 265 -107
90 -87 122 -189 114 -368 -9 -216 -45 -339 -267 -920 -21 -55 -37 -101 -36
-103 10 -10 67 26 105 66 39 42 42 44 27 15 -17 -34 -22 -83 -8 -83 26 0 103
74 199 192 130 159 136 166 294 299 246 209 300 244 569 359 181 77 248 119
325 201 69 76 89 112 75 138 -19 37 -10 67 50 167 93 153 96 186 26 253 -20
19 -36 42 -36 51 0 9 20 40 45 68 50 59 60 95 52 182 -6 74 -49 170 -74 170
-10 -1 -42 -10 -72 -20z"/>
<path d="M1095 7528 c-21 -31 -55 -142 -55 -182 0 -55 20 -105 60 -152 22 -25
40 -53 40 -63 0 -9 -18 -35 -40 -56 -63 -62 -55 -105 53 -279 38 -61 47 -112
26 -133 -29 -29 98 -178 204 -242 31 -18 136 -68 234 -110 197 -86 229 -104
353 -200 211 -164 314 -261 440 -417 100 -123 182 -204 206 -204 8 0 14 10 14
22 0 37 -37 100 -104 176 -66 75 -76 92 -199 358 -135 289 -178 427 -216 684
-38 254 -90 412 -152 465 -34 28 -46 30 -101 13 -48 -14 -59 -5 -85 67 -14 39
-29 57 -65 81 -63 42 -165 77 -178 61 -5 -7 -20 -25 -33 -41 l-24 -30 -90 67
c-86 64 -187 118 -245 131 -21 5 -30 1 -43 -16z"/>
<path d="M22825 7287 c-147 -49 -306 -197 -394 -366 -127 -246 -120 -499 20
-739 49 -82 219 -250 301 -296 289 -161 643 -175 1053 -40 196 64 486 215 750
390 199 132 537 364 585 402 111 88 200 190 200 231 0 28 -100 -31 -407 -241
-470 -322 -715 -448 -924 -478 -174 -25 -271 19 -375 172 -39 56 -102 101
-189 133 l-64 25 -18 -26 c-10 -14 -28 -37 -39 -52 l-21 -26 -44 37 c-32 28
-67 44 -129 62 -47 14 -117 42 -156 62 -40 20 -78 34 -87 30 -39 -15 -70 -103
-82 -233 -10 -109 3 -142 94 -237 139 -146 137 -183 -7 -112 -169 85 -300 275
-310 451 -5 100 7 128 110 239 41 44 80 90 86 102 20 37 13 85 -19 147 -26 49
-29 62 -20 83 25 54 186 92 251 58 l33 -17 -6 -71 -6 -70 38 -39 c33 -32 45
-38 82 -38 37 0 48 5 84 44 50 52 75 118 75 198 0 55 -3 61 -41 103 -26 28
-71 60 -117 82 -68 34 -83 38 -171 40 -60 2 -111 -2 -136 -10z"/>
<path d="M9871 7239 c-69 -12 -164 -58 -220 -107 -40 -35 -44 -43 -49 -94 -10
-128 68 -258 156 -258 32 0 49 7 77 31 34 30 35 33 35 103 0 92 15 109 93 109
92 0 187 -43 187 -85 0 -11 -14 -49 -31 -84 -44 -89 -38 -113 54 -212 40 -42
82 -91 95 -109 117 -165 -71 -516 -328 -614 l-50 -19 0 24 c0 26 47 89 99 132
19 16 47 49 63 73 24 39 28 55 28 115 0 81 -21 189 -44 235 -23 43 -57 49
-104 19 -42 -28 -73 -40 -157 -63 -69 -20 -131 -49 -162 -77 -29 -27 -47 -18
-73 32 -25 50 -34 49 -146 -5 -73 -35 -112 -71 -171 -158 -54 -78 -153 -127
-259 -127 -63 0 -187 31 -289 71 -177 71 -357 179 -750 449 -197 135 -331 217
-341 207 -31 -30 120 -190 291 -308 61 -41 189 -130 285 -196 504 -346 816
-504 1141 -574 144 -32 413 -37 539 -11 242 50 438 178 571 373 187 276 166
625 -54 897 -48 59 -147 146 -207 184 -69 42 -190 63 -279 47z"/>
<path d="M2828 7150 c-122 -22 -266 -88 -338 -156 -58 -54 -104 -139 -126
-230 -26 -109 -14 -315 30 -529 75 -364 166 -604 263 -697 27 -26 84 -60 90
-54 1 1 -18 56 -43 122 -124 324 -158 418 -189 526 -103 353 -94 580 29 715
72 80 220 130 359 121 59 -4 86 -12 144 -42 89 -47 148 -97 173 -146 35 -68 7
-90 -114 -90 -59 0 -78 -4 -99 -21 -55 -42 -55 -138 -1 -221 70 -109 244 -113
345 -9 129 133 113 410 -31 559 -57 59 -133 106 -211 131 -72 24 -209 34 -281
21z"/>
<path d="M30150 6913 c0 -5 9 -53 19 -108 33 -172 44 -322 38 -553 -4 -200 -7
-230 -41 -392 -37 -179 -57 -359 -37 -330 6 8 11 21 11 28 0 6 29 74 64 150
92 200 132 391 143 687 12 347 -41 525 -158 525 -21 0 -39 -3 -39 -7z"/>
<path d="M2710 6862 c-67 -67 -101 -304 -81 -566 21 -280 57 -435 142 -618 32
-69 59 -133 59 -142 0 -8 5 -18 12 -22 18 -12 3 119 -38 321 -32 159 -37 203
-41 377 -6 213 6 389 38 553 10 55 19 106 19 113 0 7 -15 12 -41 12 -31 0 -47
-6 -69 -28z"/>
<path d="M26235 6815 c-223 -53 -662 -459 -820 -758 -68 -130 -87 -200 -92
-360 -10 -246 37 -417 158 -580 121 -163 355 -259 482 -198 131 63 156 258 48
371 -66 70 -115 66 -200 -15 -69 -66 -96 -78 -138 -60 -74 31 -138 176 -163
370 -18 143 23 327 113 499 117 225 385 493 601 601 73 36 107 59 124 84 17
27 20 36 10 42 -28 14 -75 16 -123 4z"/>
<path d="M19659 6805 c-124 -21 -292 -71 -468 -141 -412 -164 -704 -354 -987
-645 -187 -193 -280 -323 -307 -429 -43 -168 69 -117 219 100 127 183 372 393
593 508 138 72 258 113 430 148 109 23 149 26 296 25 188 -1 173 -5 296 76 35
23 78 50 94 60 29 18 30 21 27 80 -3 54 -1 63 20 77 53 37 167 18 444 -76 100
-33 189 -58 198 -55 31 12 17 49 -41 108 -52 51 -67 60 -146 84 -298 90 -478
112 -668 80z"/>
<path d="M21020 6804 c-180 -50 -385 -207 -451 -347 -50 -107 -36 -242 34
-316 68 -72 145 -80 251 -26 85 42 111 43 162 7 59 -43 91 -92 156 -236 108
-238 196 -411 222 -435 l26 -24 0 51 c0 122 -77 368 -168 532 -26 47 -53 97
-60 111 -28 55 -145 189 -203 233 -56 42 -137 76 -181 76 -24 0 -23 -23 4
-115 25 -84 18 -105 -34 -105 -80 0 -135 53 -124 121 25 157 219 311 460 364
103 23 247 17 328 -14 103 -40 198 -146 198 -223 0 -27 -10 -42 -59 -88 -71
-66 -79 -87 -50 -125 20 -24 27 -27 68 -22 39 4 52 12 86 49 68 75 96 217 59
291 -9 18 -41 58 -71 89 -29 32 -60 72 -68 91 l-14 33 -118 19 c-161 25 -381
30 -453 9z"/>
<path d="M6571 6772 c-32 -22 26 -77 139 -133 105 -51 192 -119 340 -268 281
-283 401 -597 340 -890 -25 -124 -74 -236 -119 -274 -53 -44 -84 -36 -167 45
-65 63 -118 74 -173 36 -47 -31 -84 -106 -89 -179 -8 -106 60 -206 155 -227
104 -24 269 45 382 158 144 144 213 332 213 585 0 157 -20 246 -86 380 -121
246 -467 599 -710 726 -64 34 -93 43 -145 46 -36 2 -72 0 -80 -5z"/>
<path d="M11600 6764 c-14 -2 -83 -11 -155 -20 -147 -19 -175 -27 -175 -49 0
-8 -31 -49 -70 -90 -48 -53 -73 -88 -81 -118 -13 -49 -5 -140 17 -194 41 -100
152 -155 204 -103 38 38 23 68 -73 146 -54 44 -45 120 23 197 136 154 446 161
692 16 151 -89 256 -250 216 -329 -25 -49 -130 -79 -158 -46 -9 12 -8 29 6 78
32 119 32 118 -12 118 -89 0 -208 -89 -316 -235 -69 -93 -173 -300 -216 -431
-51 -154 -78 -314 -52 -314 18 0 84 113 150 256 137 300 184 383 244 429 45
34 84 32 166 -11 61 -32 75 -36 125 -32 66 6 116 41 155 109 21 37 25 57 25
129 0 74 -4 92 -29 139 -69 133 -256 281 -418 330 -65 20 -217 34 -268 25z"/>
<path d="M12883 6750 c-75 -11 -249 -52 -358 -85 -88 -27 -147 -69 -186 -131
-20 -33 -20 -37 -5 -52 15 -15 29 -12 199 45 278 95 392 114 445 77 21 -14 23
-21 16 -70 -8 -65 -1 -75 77 -115 32 -16 73 -42 92 -59 54 -47 79 -53 212 -45
127 7 222 -4 415 -46 344 -76 711 -332 938 -654 80 -115 112 -148 163 -169 37
-15 37 -15 43 10 9 33 -18 125 -51 184 -179 310 -608 678 -1016 870 -405 191
-745 274 -984 240z"/>
<path d="M25213 6611 c-100 -34 -170 -91 -495 -399 -316 -300 -522 -530 -656
-730 -33 -48 -107 -166 -167 -262 -59 -96 -147 -224 -195 -285 -166 -209 -217
-295 -235 -402 -9 -56 11 -65 72 -33 104 55 289 306 598 810 161 263 188 302
330 475 208 254 372 423 532 547 159 124 254 217 271 267 13 36 13 36 -55 12z"/>
<path d="M7640 6573 c0 -20 60 -101 111 -148 30 -28 110 -94 179 -148 134
-103 305 -280 492 -508 147 -179 172 -216 319 -457 253 -416 408 -642 523
-760 65 -68 101 -92 137 -92 20 0 21 3 16 53 -10 98 -58 181 -219 383 -48 62
-139 194 -201 295 -264 429 -361 547 -805 975 -281 272 -357 337 -439 379 -54
28 -113 42 -113 28z"/>
<path d="M25240 6498 c-95 -47 -257 -232 -427 -488 -183 -275 -247 -399 -327
-630 -100 -288 -146 -522 -153 -785 -8 -269 25 -472 108 -684 159 -401 513
-667 919 -688 244 -13 467 106 610 323 157 240 102 488 -134 604 -143 71 -261
25 -302 -117 -21 -73 -12 -133 27 -178 42 -48 83 -54 152 -22 30 14 70 28 87
32 l33 7 -5 -58 c-18 -190 -239 -446 -389 -448 -49 -1 -102 20 -96 38 2 6 31
30 65 54 81 57 83 82 15 142 -96 86 -161 97 -299 54 -97 -30 -178 -30 -274 2
-154 52 -270 190 -244 291 6 22 6 22 50 -8 130 -89 270 -122 351 -81 79 41 85
85 18 136 -35 27 -36 31 -31 70 11 74 7 95 -34 179 -22 46 -40 88 -40 95 0 13
36 24 71 21 46 -4 64 1 77 22 11 18 11 29 -4 69 l-18 49 34 73 c58 124 38 217
-68 330 -55 59 -106 87 -171 95 -53 6 -106 -13 -176 -66 -63 -47 -76 -45 -91
14 -52 197 60 547 292 915 59 94 247 344 352 469 68 81 99 128 107 164 6 24 4
27 -16 27 -13 0 -44 -10 -69 -22z"/>
<path d="M7586 6458 c13 -44 34 -77 102 -160 137 -167 321 -417 381 -519 170
-287 271 -559 271 -732 0 -86 -20 -177 -39 -177 -9 0 -49 23 -89 50 -67 46
-79 50 -130 50 -33 0 -74 -8 -97 -19 -59 -26 -145 -125 -174 -199 -29 -75 -26
-114 19 -210 31 -67 31 -71 16 -100 -35 -68 -12 -102 70 -102 74 0 77 -14 28
-109 -35 -69 -39 -83 -39 -153 0 -77 0 -78 -37 -109 -21 -17 -38 -39 -38 -49
0 -22 61 -77 96 -86 75 -19 236 31 330 102 l37 28 -5 -66 c-3 -55 -9 -75 -35
-110 -63 -89 -193 -156 -318 -165 -58 -4 -85 0 -154 22 -119 38 -180 33 -258
-21 -61 -42 -97 -91 -87 -118 4 -9 33 -35 65 -57 33 -22 59 -44 59 -49 0 -16
-57 -40 -92 -40 -48 0 -125 40 -186 95 -95 86 -187 245 -199 343 -8 68 5 72
97 32 53 -23 81 -30 104 -26 70 13 116 104 96 191 -15 67 -45 120 -82 147 -48
34 -154 33 -222 -2 -147 -75 -239 -226 -222 -364 20 -159 122 -317 281 -437
176 -133 440 -157 690 -63 265 101 451 265 577 509 214 418 222 939 23 1539
-76 227 -153 378 -330 647 -216 326 -393 509 -494 509 -19 0 -21 -4 -15 -22z"/>
<path d="M15222 6468 c-138 -14 -264 -112 -347 -268 -34 -65 -39 -86 -43 -156
-3 -49 0 -96 8 -119 28 -85 127 -154 223 -156 64 -2 98 17 122 68 50 104 -34
213 -156 201 l-39 -4 0 44 c0 115 88 209 227 242 69 16 88 5 109 -65 13 -46
21 -58 47 -69 18 -7 54 -36 81 -64 38 -39 64 -56 110 -72 77 -25 144 -76 218
-164 72 -86 110 -162 116 -232 l4 -54 -30 0 c-24 0 -39 11 -77 54 -47 55 -73
70 -96 55 -7 -4 -78 -72 -158 -150 -181 -179 -206 -224 -206 -364 0 -81 3 -95
29 -142 16 -29 45 -63 65 -77 39 -28 112 -56 143 -56 19 0 19 -1 -1 -26 -12
-15 -21 -40 -21 -56 0 -26 3 -29 23 -22 67 20 107 59 107 101 0 13 4 23 9 23
4 0 37 26 73 58 36 31 78 64 93 72 24 13 28 13 40 -3 43 -59 21 -191 -71 -425
-35 -89 -64 -166 -64 -170 0 -4 -50 -108 -112 -232 l-113 -225 -47 -1 c-57 -2
-188 -45 -280 -90 -57 -29 -78 -34 -135 -34 -86 0 -153 -30 -226 -99 -119
-112 -148 -279 -76 -428 57 -118 155 -173 319 -180 309 -15 599 213 565 442
-7 42 -9 44 -49 50 -75 13 -79 18 -55 77 11 28 23 81 26 117 5 59 19 93 137
331 159 319 303 640 344 770 55 175 67 251 67 425 0 143 -3 171 -28 263 -109
406 -333 689 -622 787 -68 23 -166 32 -253 23z"/>
<path d="M17420 6467 c-81 -10 -185 -46 -258 -89 -77 -45 -249 -217 -305 -304
-82 -126 -169 -353 -197 -510 -13 -77 -14 -291 -1 -364 9 -50 75 -272 103
-345 76 -197 402 -875 448 -930 17 -20 68 -190 60 -198 -4 -5 -29 -11 -56 -15
-44 -7 -48 -10 -57 -42 -42 -163 119 -360 355 -435 240 -76 460 -13 538 153
47 99 47 244 0 336 -28 53 -103 130 -159 164 -36 21 -63 27 -140 33 -86 6
-104 11 -172 47 -82 44 -205 82 -262 82 -24 0 -43 -7 -56 -22 -20 -20 -21 -20
-27 -2 -3 10 -50 109 -104 219 -110 223 -234 531 -257 639 -15 71 -13 129 7
180 l10 27 32 -18 c17 -10 56 -41 87 -70 31 -28 77 -62 102 -75 26 -12 65 -33
89 -46 52 -29 74 -23 65 17 -6 27 -3 31 37 49 123 56 173 182 133 337 -23 87
-58 134 -218 293 -114 113 -148 141 -163 136 -10 -4 -42 -31 -71 -61 -37 -38
-59 -53 -79 -53 -26 0 -26 1 -22 53 12 143 176 341 331 397 43 16 77 38 112
73 27 27 64 55 82 63 26 11 34 23 47 69 21 70 40 81 109 64 140 -32 227 -128
227 -249 0 -35 0 -36 -39 -32 -117 11 -197 -84 -161 -192 26 -80 123 -101 227
-50 67 32 107 81 127 155 19 65 13 126 -20 210 -43 109 -145 224 -242 273 -62
31 -169 45 -262 33z"/>
<path d="M29444 6212 c-21 -13 -33 -48 -39 -112 -10 -98 -5 -95 -95 -50 -171
86 -353 131 -530 131 -255 1 -431 -74 -562 -239 -134 -169 -178 -330 -114
-425 24 -36 84 -80 97 -71 14 8 11 57 -6 104 -22 62 -19 97 15 168 55 116 162
197 315 237 33 9 116 18 185 22 342 15 594 -128 740 -423 22 -44 52 -125 67
-180 24 -89 27 -117 27 -279 1 -238 -15 -315 -130 -605 -61 -156 -51 -230 30
-230 51 1 106 33 197 117 138 125 361 230 599 280 125 26 357 23 463 -5 268
-73 437 -256 508 -547 65 -272 13 -513 -136 -615 -49 -34 -133 -60 -192 -60
l-44 0 17 -29 c25 -42 69 -72 114 -78 117 -16 290 150 403 385 l42 87 -1 165
c-1 147 -4 176 -28 265 -44 161 -75 217 -183 321 -95 92 -143 149 -143 169 0
7 26 18 57 25 40 10 68 25 96 52 36 34 39 41 34 74 -7 41 -29 69 -70 90 -15 8
-58 42 -95 76 -107 98 -212 134 -329 116 -68 -11 -122 -34 -257 -112 -55 -32
-122 -66 -148 -77 -50 -20 -160 -30 -174 -16 -5 4 18 58 49 120 70 137 77 175
44 237 -19 36 -36 52 -86 78 -105 54 -153 40 -240 -71 -49 -62 -113 -109 -128
-93 -20 19 -5 203 27 341 77 334 24 460 -260 622 -71 41 -112 51 -136 35z"/>
<path d="M3405 6165 c-75 -39 -176 -109 -219 -151 -48 -47 -87 -143 -93 -226
-4 -59 2 -107 31 -250 34 -167 44 -274 30 -325 -6 -21 -8 -21 -34 -8 -15 8
-59 50 -99 94 -81 90 -116 108 -178 92 -100 -27 -172 -112 -160 -189 4 -20 31
-87 62 -149 30 -62 55 -114 55 -117 0 -4 -28 -6 -62 -6 -76 1 -135 23 -279
107 -143 83 -207 106 -294 106 -97 0 -167 -29 -249 -103 -35 -32 -85 -70 -111
-85 -44 -26 -75 -67 -75 -100 0 -53 68 -108 148 -121 23 -4 42 -9 42 -13 0
-21 -56 -90 -122 -151 -100 -92 -138 -147 -176 -251 -43 -122 -62 -232 -62
-370 0 -100 4 -128 24 -184 54 -148 196 -336 300 -396 39 -22 64 -29 105 -29
51 0 56 2 100 47 l46 47 -69 8 c-87 10 -142 35 -201 89 -95 88 -130 203 -123
401 6 140 32 242 95 374 45 93 164 222 253 272 330 185 917 84 1242 -215 46
-42 97 -82 115 -90 43 -18 98 -17 117 3 34 33 15 136 -51 287 -59 135 -94 290
-100 453 -9 230 28 404 124 573 146 259 429 395 752 361 184 -19 298 -65 377
-154 90 -99 114 -187 79 -287 -9 -24 -13 -54 -10 -67 5 -21 7 -21 34 -8 42 22
89 81 97 122 29 157 -138 424 -325 518 -123 62 -204 79 -371 79 -129 0 -158
-4 -263 -31 -69 -18 -162 -52 -223 -81 -59 -28 -110 -48 -115 -45 -5 3 -9 24
-9 47 -1 90 -33 157 -75 157 -8 0 -43 -16 -80 -35z"/>
<path d="M31334 6085 c-85 -18 -257 -87 -400 -160 -208 -107 -376 -230 -464
-340 -48 -61 -97 -151 -87 -162 13 -13 101 50 192 136 221 213 559 392 795
420 199 24 329 -33 432 -193 53 -82 79 -172 80 -273 1 -70 -3 -90 -26 -138
-31 -61 -71 -97 -135 -120 -83 -29 -87 -26 -94 67 -6 71 -10 85 -34 110 -15
16 -44 33 -64 40 -106 31 -224 -124 -190 -250 42 -156 265 -256 431 -193 155
59 266 246 277 466 14 287 -146 523 -400 591 -65 17 -232 17 -313 -1z"/>
<path d="M1383 6079 c-29 -5 -80 -20 -115 -34 -185 -74 -315 -273 -326 -501
-11 -220 100 -440 257 -513 137 -62 348 0 418 124 61 108 25 242 -79 293 -40
20 -52 22 -85 13 -22 -6 -50 -22 -64 -37 -21 -22 -24 -37 -28 -111 l-3 -85
-41 6 c-67 11 -138 55 -169 107 -43 69 -54 147 -35 244 33 160 123 287 245
347 64 32 71 33 182 32 143 -1 240 -28 415 -113 172 -85 315 -183 447 -309
105 -99 169 -144 185 -129 3 4 -7 32 -22 64 -38 79 -192 231 -315 312 -113 74
-354 196 -475 240 -146 53 -276 69 -392 50z"/>
<path d="M22207 5931 c-58 -23 -145 -89 -193 -145 -25 -30 -44 -70 -69 -151
-33 -106 -63 -155 -93 -155 -20 0 -24 45 -9 123 13 67 13 79 -1 98 -13 18 -21
20 -59 15 -56 -7 -119 -35 -160 -70 -69 -58 -123 -228 -143 -446 -6 -69 -14
-135 -17 -147 -6 -26 15 -47 125 -124 279 -195 495 -178 650 53 50 74 139 263
153 323 15 68 4 100 -39 109 -39 9 -66 -3 -141 -64 -67 -54 -112 -64 -119 -27
-4 18 14 37 155 167 54 50 61 62 82 135 30 100 39 119 90 174 46 49 48 57 25
89 -38 55 -155 76 -237 43z"/>
<path d="M10513 5894 c-23 -8 -53 -26 -68 -40 -33 -30 -27 -52 25 -110 37 -41
56 -81 85 -186 14 -53 23 -64 103 -134 95 -82 135 -135 116 -154 -15 -15 -75
10 -120 50 -53 46 -92 63 -130 55 -25 -4 -35 -12 -40 -32 -15 -60 48 -229 142
-380 152 -244 366 -264 660 -62 120 83 117 78 104 205 -24 243 -45 337 -93
431 -39 75 -178 155 -242 139 -41 -10 -47 -37 -29 -116 17 -75 13 -120 -10
-120 -26 0 -53 48 -92 162 -36 107 -42 117 -104 179 -103 103 -217 146 -307
113z"/>
<path d="M28910 5844 c0 -19 16 -79 34 -134 59 -170 69 -414 30 -688 -46 -316
-185 -573 -432 -792 -151 -136 -317 -226 -510 -277 -85 -23 -117 -26 -262 -27
-125 0 -182 4 -234 17 -307 77 -543 280 -596 512 -16 67 -16 186 0 260 39 188
201 343 408 391 121 28 204 8 242 -60 15 -27 15 -27 -63 -98 -89 -81 -107
-109 -107 -171 0 -90 101 -221 207 -270 69 -32 190 -30 257 2 65 32 156 118
189 179 99 182 63 446 -88 642 -156 203 -413 301 -671 256 -323 -56 -605 -277
-725 -567 -63 -155 -74 -215 -74 -424 1 -169 3 -199 24 -275 58 -206 131 -330
286 -485 139 -139 223 -194 397 -260 145 -55 269 -76 451 -76 154 0 230 9 378
46 548 139 962 456 1185 908 107 216 185 500 184 670 -2 269 -101 528 -249
651 -69 57 -117 79 -213 95 l-48 8 0 -33z"/>
<path d="M3915 5827 c-129 -48 -208 -128 -281 -282 -147 -313 -117 -691 87
-1100 235 -472 658 -784 1244 -917 88 -20 126 -23 310 -22 194 0 217 2 307 26
214 58 366 144 513 292 158 159 237 295 292 503 35 132 37 349 5 490 -81 354
-308 605 -652 719 -78 26 -98 28 -235 29 -140 0 -156 -2 -233 -29 -46 -15
-117 -50 -158 -78 -253 -169 -370 -511 -259 -756 32 -71 124 -165 194 -199 46
-23 69 -28 132 -28 65 1 85 5 142 33 96 48 175 143 192 233 11 58 -16 106
-105 189 l-80 75 20 33 c70 113 329 66 496 -91 113 -105 160 -230 151 -402 -5
-111 -27 -184 -82 -271 -119 -186 -388 -333 -650 -353 -351 -27 -686 111 -953
393 -99 106 -144 169 -217 313 -101 198 -141 424 -133 751 l5 187 42 122 c52
155 52 163 4 162 -21 0 -65 -10 -98 -22z"/>
<path d="M20502 5809 c-50 -10 -105 -41 -127 -72 -27 -39 -19 -79 25 -122 28
-28 46 -56 56 -93 23 -79 53 -108 137 -133 137 -41 176 -75 147 -128 -15 -29
-33 -26 -100 15 -32 20 -73 37 -90 37 -29 2 -34 -2 -50 -43 -11 -25 -19 -66
-19 -92 -1 -74 40 -112 202 -191 124 -60 167 -91 223 -160 43 -53 119 -45 198
21 147 122 218 186 231 212 30 58 38 127 25 214 -24 155 -76 270 -157 348 -40
38 -125 88 -151 88 -8 0 -42 18 -75 40 -67 45 -97 48 -110 10 -7 -20 -2 -44
22 -104 71 -177 5 -182 -111 -7 -28 42 -64 91 -81 108 -44 47 -120 67 -195 52z"/>
<path d="M31388 5800 c-373 -78 -859 -303 -938 -433 -22 -36 -26 -77 -8 -77 6
0 52 24 102 54 121 71 169 95 308 150 194 76 465 140 708 165 202 22 190 19
190 51 0 44 -19 77 -55 95 -45 21 -196 19 -307 -5z"/>
<path d="M1314 5800 c-49 -15 -76 -51 -72 -96 l3 -39 90 -7 c146 -12 349 -47
514 -89 232 -59 379 -121 643 -273 52 -29 67 -13 39 41 -43 86 -209 192 -468
299 -301 125 -637 199 -749 164z"/>
<path d="M12235 5758 c-54 -19 -83 -47 -139 -132 -50 -75 -126 -156 -148 -156
-18 0 -6 71 23 135 23 51 29 76 24 101 -9 52 -37 53 -106 5 -32 -22 -79 -48
-106 -57 -103 -35 -187 -124 -237 -251 -64 -163 -62 -340 3 -409 49 -52 208
-184 253 -209 26 -15 59 -25 85 -25 35 0 45 5 67 33 65 79 102 107 196 148
218 94 266 167 198 302 -10 20 -25 37 -32 37 -8 0 -48 -18 -90 -40 -41 -22
-82 -40 -90 -40 -17 0 -30 37 -24 67 4 22 72 57 153 79 73 20 108 54 129 124
11 35 31 69 62 102 39 41 45 53 39 76 -21 85 -162 145 -260 110z"/>
<path d="M32141 5711 c-23 -23 -22 -45 5 -88 8 -12 55 -43 106 -70 108 -55
211 -149 251 -229 14 -28 33 -93 42 -145 22 -125 41 -164 118 -244 55 -55 71
-66 94 -63 24 3 30 11 46 58 31 93 59 106 78 38 43 -161 -144 -418 -304 -418
-39 0 -53 5 -72 26 -28 30 -27 32 33 119 29 43 33 56 29 94 -16 141 -204 185
-291 68 -17 -24 -21 -43 -21 -110 0 -71 4 -91 31 -147 17 -36 46 -83 65 -105
80 -91 260 -131 382 -85 227 86 340 494 212 765 -47 99 -151 223 -271 324
-163 136 -320 216 -450 228 -54 5 -64 3 -83 -16z"/>
<path d="M698 5704 c-122 -29 -293 -133 -424 -257 -206 -195 -284 -359 -270
-572 20 -327 218 -532 454 -471 133 34 195 84 249 202 37 80 43 195 14 241
-70 111 -237 98 -287 -23 -21 -50 -18 -65 31 -140 25 -37 45 -72 45 -77 0 -4
-12 -19 -26 -32 -55 -51 -148 -22 -243 73 -101 100 -151 236 -121 326 20 61
50 44 75 -42 18 -58 26 -66 60 -58 31 8 131 110 157 160 11 21 28 86 38 143
13 70 28 120 46 151 44 77 143 164 242 215 98 51 119 70 128 114 12 59 -50 76
-168 47z"/>
<path d="M18894 5620 c-92 -21 -193 -61 -329 -130 -108 -55 -195 -115 -292
-202 -73 -66 -119 -96 -129 -85 -4 3 1 47 10 96 19 103 11 159 -27 186 -33 23
-48 19 -128 -33 -74 -49 -158 -132 -185 -184 -18 -35 -25 -35 -67 2 -40 35
-52 36 -92 11 -73 -45 -125 -123 -155 -236 -16 -61 -25 -76 -69 -116 -66 -59
-126 -180 -125 -254 1 -109 96 -213 226 -245 75 -19 121 -1 198 78 67 70 107
102 127 102 15 0 33 -54 33 -100 0 -20 -16 -98 -35 -173 -42 -164 -45 -235
-12 -297 28 -52 37 -57 68 -31 l24 19 0 234 c0 210 2 236 19 268 20 38 46 61
58 54 4 -3 39 -58 78 -123 102 -173 155 -210 315 -219 170 -9 258 36 322 164
39 81 42 101 31 243 -3 33 0 37 57 69 150 84 218 220 147 292 -45 45 -97 48
-345 24 l-69 -7 4 54 3 54 -90 -4 -90 -3 -52 -49 c-34 -32 -60 -49 -77 -49
-32 0 -32 8 0 73 36 71 161 191 262 251 92 55 255 118 352 137 96 18 282 16
359 -4 147 -39 256 -128 287 -233 18 -63 25 -223 11 -285 -10 -47 -41 -79 -77
-79 -22 0 -45 15 -93 60 -49 46 -72 60 -94 60 -61 0 -113 -74 -99 -142 22
-112 214 -184 319 -120 121 76 180 316 128 521 -11 46 -33 105 -47 130 -108
187 -391 282 -660 221z"/>
<path d="M13610 5570 c-216 -58 -334 -174 -376 -368 -28 -135 -11 -284 47
-392 56 -106 139 -146 241 -116 153 44 212 171 117 251 -46 38 -71 32 -139
-30 -126 -116 -184 -77 -183 125 0 146 22 220 83 281 109 109 306 158 515 129
295 -43 558 -200 663 -398 l33 -62 -26 0 c-17 0 -46 16 -79 45 -43 36 -61 45
-92 45 -21 0 -59 5 -83 11 -24 5 -46 7 -50 4 -3 -4 -6 -30 -6 -58 0 -61 14
-57 -163 -38 -160 18 -237 0 -262 -59 -11 -26 -10 -40 5 -90 21 -69 64 -116
157 -170 62 -36 63 -37 60 -76 -8 -117 -4 -163 23 -222 32 -72 83 -123 150
-153 39 -18 69 -22 140 -23 185 0 253 45 359 237 33 59 65 107 71 107 18 0 42
-30 61 -75 14 -35 16 -66 9 -251 l-7 -211 25 -28 c31 -36 48 -29 77 30 30 61
24 139 -20 294 -34 121 -38 212 -11 245 19 23 52 2 131 -81 52 -55 75 -72 112
-82 110 -31 252 50 303 173 22 53 18 99 -17 182 -24 57 -46 89 -93 137 -52 52
-64 70 -70 107 -14 88 -64 176 -128 224 -52 39 -69 40 -112 6 -21 -16 -42 -30
-46 -30 -5 0 -16 14 -25 32 -40 78 -220 228 -272 228 -31 0 -64 -45 -69 -93
-3 -24 2 -79 11 -122 9 -43 14 -80 11 -83 -10 -10 -58 23 -124 84 -96 89 -228
173 -379 243 -175 81 -251 101 -387 107 -89 3 -125 0 -185 -16z"/>
<path d="M24382 5424 c-50 -52 -114 -167 -196 -352 -50 -113 -137 -267 -200
-352 -94 -127 -188 -208 -313 -268 -71 -34 -85 -37 -163 -37 -76 0 -92 4 -145
32 -33 17 -101 63 -150 102 -127 101 -208 119 -270 61 -31 -29 -65 -110 -67
-159 -2 -48 -14 -52 -50 -13 -43 45 -52 73 -52 152 0 80 20 135 62 174 18 15
26 17 53 7 84 -29 130 -2 136 80 3 42 -1 64 -19 99 -62 120 -180 118 -296 -4
-61 -64 -86 -112 -102 -194 -33 -165 30 -361 163 -508 127 -141 340 -222 556
-211 125 6 186 25 303 94 289 172 549 585 767 1217 23 65 39 121 36 124 -3 3
-27 -17 -53 -44z"/>
<path d="M8506 5298 c259 -757 580 -1187 951 -1274 49 -12 95 -15 168 -11 330
17 580 223 641 526 32 160 -5 283 -116 392 -66 64 -116 86 -174 75 -116 -22
-173 -226 -75 -267 23 -9 39 -9 75 1 43 12 46 12 74 -15 37 -36 53 -84 53
-160 0 -77 -30 -148 -72 -170 l-31 -16 0 29 c0 50 -30 131 -61 167 -62 70
-133 56 -278 -56 -123 -95 -197 -129 -281 -129 -230 1 -464 222 -646 607 -118
251 -165 339 -205 386 -69 80 -73 62 -23 -85z"/>
<path d="M20118 5104 c-18 -6 -25 -24 -30 -79 -3 -33 4 -32 -121 -19 -79 9
-141 -10 -189 -58 -50 -50 -52 -91 -7 -116 58 -32 77 -52 93 -99 22 -63 37
-78 116 -108 92 -35 107 -53 91 -106 -16 -52 -9 -59 84 -98 311 -130 714 -34
742 178 8 57 -16 81 -142 140 -96 45 -104 52 -188 148 -164 189 -205 215 -342
219 -49 2 -98 0 -107 -2z"/>
<path d="M22374 5052 c-17 -21 -51 -67 -77 -103 -73 -103 -132 -152 -261 -215
-168 -82 -226 -154 -199 -247 7 -27 15 -33 53 -40 56 -10 163 -1 233 20 132
39 256 133 312 235 26 48 28 57 27 177 0 128 -19 212 -46 210 -6 0 -25 -17
-42 -37z"/>
<path d="M12493 5045 c-36 -18 -80 -57 -140 -122 -166 -182 -172 -187 -272
-228 -129 -54 -154 -91 -112 -173 27 -51 86 -106 149 -137 154 -77 440 -67
612 20 27 14 51 28 53 32 3 5 -1 26 -9 48 -17 51 -5 65 86 100 79 30 96 46
124 118 17 41 30 56 64 75 55 31 67 53 48 91 -37 71 -114 107 -209 97 -134
-13 -121 -16 -128 32 -3 23 -11 48 -18 55 -7 7 -48 13 -104 15 -83 3 -97 1
-144 -23z"/>
<path d="M10432 5023 c-13 -30 -17 -69 -17 -173 0 -160 10 -185 104 -278 104
-103 235 -152 403 -152 l98 0 6 28 c3 15 7 32 9 39 8 25 -18 89 -48 121 -18
19 -85 60 -150 93 -131 66 -187 112 -255 209 -66 94 -112 150 -123 150 -6 0
-18 -17 -27 -37z"/>
<path d="M21336 4919 c-93 -27 -116 -151 -41 -226 27 -27 40 -33 78 -33 55 0
105 31 129 81 46 93 -62 209 -166 178z"/>
<path d="M11430 4872 c-73 -36 -103 -130 -59 -186 44 -55 131 -75 183 -41 13
9 31 34 40 56 52 129 -46 231 -164 171z"/>
<path d="M21076 4740 c-72 -64 -98 -169 -53 -214 32 -32 111 -43 160 -22 43
18 55 50 38 105 -13 44 -86 161 -100 161 -6 0 -26 -14 -45 -30z"/>
<path d="M21575 4703 c-99 -106 -108 -142 -51 -199 31 -31 40 -34 90 -34 48 0
60 4 92 32 89 79 84 206 -10 249 -23 10 -45 18 -51 18 -5 -1 -37 -30 -70 -66z"/>
<path d="M11180 4726 c-74 -26 -102 -124 -60 -205 36 -72 117 -99 195 -67 40
17 55 42 55 91 0 31 -10 47 -72 113 -40 42 -75 78 -78 79 -3 1 -21 -4 -40 -11z"/>
<path d="M11692 4681 c-60 -88 -75 -153 -43 -192 16 -20 28 -24 79 -24 105 0
150 55 117 142 -20 53 -80 123 -104 123 -9 0 -31 -22 -49 -49z"/>
<path d="M21317 4522 c-28 -31 -66 -137 -81 -223 -7 -42 8 -94 25 -83 30 18
89 209 89 288 0 40 -9 45 -33 18z"/>
<path d="M11514 4448 c11 -111 63 -258 91 -258 55 0 -23 298 -84 318 -12 4
-13 -7 -7 -60z"/>
<path d="M20939 4446 c-45 -98 140 -200 191 -106 13 24 7 50 -11 50 -6 0 -36
15 -67 34 -82 49 -99 53 -113 22z"/>
<path d="M21430 4408 c-24 -52 -24 -68 -6 -113 19 -45 69 -75 124 -75 58 0
111 47 118 105 5 33 2 42 -16 53 -20 12 -182 72 -195 72 -3 0 -15 -19 -25 -42z"/>
<path d="M11808 4398 c-92 -46 -108 -68 -70 -100 78 -68 213 29 176 126 -3 9
-9 16 -13 16 -4 0 -46 -19 -93 -42z"/>
<path d="M11318 4395 c-85 -29 -128 -55 -128 -75 0 -8 9 -34 19 -57 31 -66 94
-89 165 -59 65 27 90 97 61 171 -19 52 -23 53 -117 20z"/>
<path d="M20764 4374 c-96 -50 -211 -93 -277 -104 -57 -10 -79 -9 -144 5 -47
11 -92 15 -117 11 -97 -16 -148 -87 -115 -160 11 -23 8 -31 -32 -81 -79 -99
-109 -155 -109 -203 0 -52 14 -82 39 -82 10 0 39 16 65 36 l46 37 83 -12 c45
-6 102 -11 127 -11 41 0 47 -4 73 -41 28 -39 30 -40 75 -33 26 3 88 18 137 34
226 69 395 206 420 342 12 65 -1 95 -72 152 -35 30 -78 72 -95 95 -16 23 -35
41 -42 41 -7 0 -35 -11 -62 -26z"/>
<path d="M21943 4375 c-139 -33 -159 -45 -190 -111 -14 -30 -22 -62 -19 -70
16 -42 159 -58 271 -29 140 37 261 115 253 165 -10 69 -137 87 -315 45z"/>
<path d="M10691 4369 c-18 -6 -44 -17 -57 -26 -87 -57 81 -179 292 -213 68
-11 152 0 191 25 l23 15 -20 53 c-28 75 -52 91 -177 120 -134 31 -208 39 -252
26z"/>
<path d="M11986 4328 c-15 -24 -52 -60 -82 -81 -30 -21 -62 -49 -70 -62 -21
-33 -20 -104 4 -157 59 -134 315 -287 522 -312 l56 -7 29 40 30 41 75 0 c41 0
95 5 119 11 42 9 47 8 96 -26 74 -51 95 -46 109 25 8 44 -23 108 -98 204 -52
67 -53 70 -41 100 27 64 -13 124 -98 147 -34 9 -59 8 -132 -6 -83 -16 -96 -16
-165 -1 -44 9 -121 38 -188 71 -63 30 -119 55 -126 55 -7 0 -25 -19 -40 -42z"/>
<path d="M17530 4304 c-14 -37 -12 -93 5 -152 17 -56 58 -112 82 -112 13 0 15
14 11 98 -6 120 -37 192 -84 192 -3 0 -9 -12 -14 -26z"/>
<path d="M15237 4272 c-30 -32 -48 -93 -54 -177 -6 -91 2 -107 42 -81 33 21
65 114 65 186 0 89 -17 112 -53 72z"/>
<path d="M21148 4135 c-68 -46 -142 -219 -243 -568 -46 -159 -69 -186 -228
-269 -86 -45 -111 -73 -111 -125 0 -43 15 -53 79 -53 43 0 65 9 158 61 59 34
114 59 122 55 8 -3 24 -24 35 -46 12 -23 25 -40 30 -38 13 5 176 181 187 203
21 40 24 121 9 235 -19 142 -20 182 -2 224 17 40 57 79 68 68 24 -24 39 -128
44 -297 5 -196 15 -273 44 -340 19 -44 197 -248 226 -259 33 -13 46 13 39 80
-5 41 -3 64 4 68 6 4 33 -5 59 -21 26 -16 65 -36 87 -46 57 -25 231 -67 275
-67 48 0 118 25 147 52 30 28 46 89 38 139 -8 47 -26 50 -100 16 -70 -33 -106
-38 -186 -27 -134 19 -236 69 -328 161 -100 100 -131 171 -180 404 -52 247
-108 368 -188 401 -42 18 -42 18 -85 -11z"/>
<path d="M3698 4115 c-91 -50 -32 -252 93 -315 49 -25 85 -25 127 0 29 18 32
24 32 69 0 167 -142 305 -252 246z"/>
<path d="M11610 4112 c-68 -36 -128 -172 -170 -384 -42 -215 -83 -304 -189
-408 -77 -76 -165 -124 -266 -145 -98 -21 -146 -19 -209 9 -29 13 -68 27 -85
31 -27 6 -31 3 -37 -20 -10 -39 2 -105 23 -134 33 -45 87 -64 173 -63 104 1
186 24 299 82 52 27 99 46 104 43 5 -3 6 -33 2 -67 -7 -70 7 -96 42 -78 21 12
181 185 205 223 38 59 50 131 58 344 11 289 35 361 92 284 30 -40 39 -97 27
-185 -19 -152 -22 -249 -9 -288 12 -38 172 -216 194 -216 6 0 19 19 30 41 10
22 25 43 32 46 8 3 47 -16 88 -41 131 -82 197 -102 247 -76 26 14 26 79 0 111
-10 13 -60 46 -110 72 -127 67 -154 95 -180 187 -119 410 -198 597 -271 635
-37 19 -48 19 -90 -3z"/>
<path d="M29140 4119 c-73 -29 -131 -128 -138 -236 l-5 -71 31 -16 c39 -20 94
-21 131 -1 67 34 141 154 141 227 0 84 -76 130 -160 97z"/>
<path d="M18248 4017 c-133 -112 -147 -117 -197 -72 -51 46 -75 47 -66 3 10
-43 28 -78 87 -166 86 -127 93 -167 58 -302 -20 -76 -26 -155 -12 -163 4 -3
41 4 82 14 266 67 406 258 327 444 -82 194 -104 240 -128 266 -42 45 -76 40
-151 -24z"/>
<path d="M19251 4044 c-80 -21 -147 -61 -224 -134 -197 -184 -297 -472 -257
-735 14 -96 62 -248 101 -326 86 -173 277 -402 460 -555 187 -156 465 -316
664 -383 50 -16 142 -40 205 -51 103 -20 137 -22 320 -17 272 7 414 31 760
128 237 66 390 175 350 249 -21 39 -139 80 -230 80 -22 0 -75 -10 -117 -22
-66 -20 -102 -23 -238 -23 -148 0 -167 2 -250 29 -160 51 -256 107 -375 222
-83 80 -149 120 -214 129 -121 19 -114 -86 14 -202 52 -47 90 -97 90 -118 0
-3 -16 -5 -36 -5 -70 0 -115 40 -190 167 -68 114 -96 149 -143 172 -20 10 -80
41 -134 70 -131 69 -161 67 -174 -12 -7 -46 16 -114 72 -209 48 -82 54 -108
30 -128 -25 -21 -17 -58 22 -101 46 -51 96 -80 225 -130 118 -46 189 -88 220
-131 17 -25 18 -32 7 -39 -60 -38 -307 47 -477 163 -90 62 -245 214 -320 313
-56 75 -121 194 -176 324 -19 44 -51 106 -71 137 -71 110 -119 132 -156 70
-25 -43 -41 -38 -68 17 -40 82 -64 213 -57 309 14 208 66 348 170 457 180 187
357 240 431 128 13 -21 13 -28 -1 -71 -22 -63 -16 -176 10 -205 43 -47 152 -6
193 71 48 91 -11 254 -117 324 -78 52 -210 67 -319 38z"/>
<path d="M14426 4006 c-18 -18 -41 -55 -51 -82 -9 -27 -32 -79 -50 -115 -77
-156 -63 -262 51 -373 72 -71 234 -146 316 -146 25 0 24 62 -2 160 -35 135
-28 175 58 302 59 88 77 123 87 166 9 43 -10 42 -58 -3 -20 -19 -43 -35 -50
-35 -19 0 -100 53 -149 98 -80 73 -106 77 -152 28z"/>
<path d="M13360 4016 c-64 -18 -100 -39 -141 -83 -86 -90 -110 -211 -57 -290
26 -39 95 -83 131 -83 9 0 28 11 43 24 24 20 28 32 32 90 3 47 -1 80 -12 111
-19 50 -14 70 30 104 81 64 221 12 374 -140 126 -126 180 -268 181 -479 0 -64
-3 -130 -7 -146 -15 -67 -57 -174 -75 -190 -17 -16 -19 -15 -40 20 -14 25 -28
36 -44 36 -33 0 -108 -87 -149 -174 -19 -39 -54 -114 -79 -167 -25 -52 -69
-131 -98 -174 -65 -96 -251 -286 -338 -345 -83 -56 -250 -135 -327 -154 -72
-18 -150 -21 -160 -5 -11 18 57 79 126 114 36 18 102 47 146 64 103 40 169 83
202 134 25 38 26 40 9 69 -23 40 -21 61 9 110 54 86 84 161 84 213 0 98 -40
99 -216 10 -138 -71 -143 -75 -216 -200 -60 -103 -97 -145 -142 -166 -112 -51
-115 -4 -7 103 79 77 106 123 99 170 -3 20 -10 23 -56 26 -76 4 -144 -30 -240
-120 -93 -89 -142 -123 -246 -172 -126 -60 -211 -78 -361 -79 -110 -1 -146 3
-239 27 -99 25 -114 26 -179 16 -169 -26 -218 -88 -135 -170 48 -47 103 -76
225 -120 257 -93 553 -149 831 -157 238 -7 332 4 507 62 284 93 564 266 799
494 295 288 437 568 437 866 -1 220 -45 355 -175 528 -139 186 -345 273 -526
223z"/>
<path d="M23120 3948 c-20 -14 -60 -67 -101 -137 -219 -361 -446 -650 -784
-1000 -90 -93 -128 -124 -211 -172 -118 -70 -184 -123 -184 -150 0 -34 57 -61
114 -55 106 12 237 104 446 315 274 277 695 826 827 1079 35 68 39 116 10 134
-24 15 -84 8 -117 -14z"/>
<path d="M9653 3949 c-18 -7 -23 -16 -23 -46 0 -54 42 -136 161 -313 252 -374
572 -762 791 -958 206 -185 340 -241 417 -176 29 24 30 27 15 49 -14 21 -124
105 -139 105 -4 0 -37 19 -73 43 -69 45 -282 260 -442 447 -170 199 -385 498
-490 680 -23 41 -54 90 -67 108 -37 50 -107 78 -150 61z"/>
<path d="M17020 3289 c-89 -38 -99 -40 -165 -34 -91 7 -115 -7 -115 -68 0 -75
83 -187 138 -187 28 0 84 -34 94 -56 9 -19 7 -33 -7 -64 -23 -52 -13 -64 79
-93 132 -41 346 -26 482 35 57 25 156 99 188 140 24 33 56 107 56 133 0 18
-67 35 -182 45 -152 14 -189 28 -287 113 -54 47 -114 77 -156 76 -16 0 -73
-18 -125 -40z"/>
<path d="M15595 3286 c-16 -8 -61 -39 -100 -70 -89 -72 -144 -92 -288 -105
-119 -11 -167 -23 -167 -40 0 -33 56 -128 100 -171 60 -59 188 -124 282 -145
100 -21 278 -13 358 16 71 27 71 26 55 120 -6 31 -3 39 20 57 15 12 43 24 64
28 20 4 47 15 62 25 37 26 82 114 82 162 0 59 -20 70 -109 62 -68 -6 -75 -5
-161 34 -97 44 -146 50 -198 27z"/>
<path d="M17974 3186 c-69 -32 -97 -69 -91 -119 7 -54 39 -84 103 -97 49 -10
60 -18 125 -90 191 -212 496 -443 814 -617 61 -33 185 -101 276 -152 185 -102
271 -143 373 -177 76 -26 170 -33 164 -11 -9 27 -130 95 -328 182 -238 106
-291 138 -630 388 -319 235 -427 324 -539 443 l-91 98 2 74 c3 63 0 76 -16 88
-30 21 -104 17 -162 -10z"/>
<path d="M14699 3179 c-33 -12 -40 -37 -32 -111 l6 -58 -119 -118 c-137 -136
-176 -168 -489 -397 -341 -251 -418 -299 -595 -376 -262 -113 -390 -184 -374
-210 14 -24 132 2 258 57 84 36 481 246 646 342 246 143 452 299 650 496 117
115 140 134 175 139 71 11 124 71 110 124 -10 42 -66 89 -125 107 -60 18 -74
19 -111 5z"/>
<path d="M21225 3123 c29 -293 171 -576 393 -784 248 -232 550 -330 807 -260
228 62 349 181 349 346 0 183 -210 321 -316 208 -60 -64 -78 -163 -38 -203 37
-37 83 -30 135 21 23 21 46 39 52 39 16 0 62 -57 69 -86 9 -37 -23 -99 -72
-143 -50 -43 -144 -96 -192 -106 -41 -9 -88 19 -128 77 -44 63 -86 77 -229 78
-138 1 -184 15 -295 90 -86 58 -231 199 -277 269 -58 86 -108 197 -138 301
-42 150 -78 220 -112 220 -12 0 -13 -13 -8 -67z"/>
<path d="M11598 3163 c-28 -32 -56 -97 -88 -208 -17 -60 -48 -141 -67 -179
-87 -174 -268 -353 -443 -435 -61 -29 -72 -31 -186 -31 -67 0 -135 -5 -151
-11 -17 -5 -56 -39 -87 -75 -53 -59 -61 -64 -98 -64 -76 0 -228 93 -263 161
-21 39 -19 88 5 127 30 49 45 49 95 3 52 -48 101 -55 135 -21 31 31 27 104 -9
159 -57 85 -124 103 -212 54 -123 -67 -166 -216 -99 -349 35 -70 64 -100 145
-149 90 -54 172 -76 305 -82 137 -6 220 9 339 60 223 97 417 275 555 511 90
152 142 307 153 459 6 90 0 103 -29 70z"/>
<path d="M17660 2563 c-242 -36 -369 -72 -514 -145 -307 -154 -456 -340 -456
-570 0 -176 120 -383 262 -451 74 -36 124 -42 190 -23 123 35 190 161 144 271
-18 41 -49 59 -89 51 -51 -10 -67 -32 -67 -92 0 -33 -5 -58 -15 -67 -39 -39
-135 -28 -197 23 -99 81 -145 282 -99 430 23 74 53 119 98 150 43 29 54 20 78
-65 20 -71 30 -85 60 -85 33 0 125 71 169 131 107 145 121 161 175 192 161 94
330 141 480 135 78 -3 92 -6 124 -31 20 -15 37 -32 37 -37 0 -16 -65 -28 -190
-34 -143 -8 -183 -22 -249 -88 -32 -31 -41 -48 -41 -75 0 -31 4 -35 47 -54 91
-39 243 -177 243 -221 0 -15 -4 -30 -10 -33 -13 -8 -13 -65 -1 -65 5 0 38 -24
73 -54 96 -81 136 -97 242 -97 138 0 282 78 356 192 70 109 64 183 -21 250
-85 67 -149 135 -149 159 0 22 2 22 61 16 112 -13 349 -101 578 -215 125 -63
189 -86 264 -97 56 -8 61 4 15 40 -34 24 -93 51 -228 101 -41 15 -165 75 -275
133 -437 231 -601 291 -880 322 -88 10 -166 11 -215 3z"/>
<path d="M14905 2540 c-100 -12 -191 -32 -312 -71 -124 -40 -232 -89 -504
-231 -123 -65 -268 -133 -321 -152 -106 -38 -178 -74 -218 -105 l-25 -21 35 0
c69 0 163 31 303 100 245 120 433 188 566 205 l54 7 -7 -28 c-9 -35 -40 -69
-124 -136 -77 -62 -96 -96 -88 -155 16 -119 134 -237 283 -283 137 -42 229
-22 351 77 89 72 86 65 66 146 -5 23 -1 34 22 58 53 56 158 137 209 161 42 20
50 28 53 54 4 38 -28 80 -97 126 -45 32 -49 32 -191 39 -80 3 -153 9 -162 14
-38 16 -8 57 59 81 58 20 145 17 262 -12 222 -54 313 -110 424 -260 82 -110
154 -173 198 -174 33 0 43 12 62 77 18 61 34 93 47 93 5 0 25 -14 45 -32 97
-85 132 -281 76 -429 -46 -120 -116 -179 -213 -179 -69 0 -88 18 -88 84 0 61
-12 83 -51 91 -70 16 -114 -35 -114 -131 1 -64 26 -108 88 -152 159 -114 398
18 482 265 68 201 24 386 -126 534 -164 162 -377 264 -684 330 -64 13 -273 18
-360 9z"/>
</g>
</svg>
